<svg aria-hidden="true" style="position: absolute; width: 0; height: 0; overflow: hidden;" version="1.1" xmlns="http://www.w3.org/2000/svg" xmlns:xlink="http://www.w3.org/1999/xlink">


<symbol id="icon-close" viewBox="0 0 32 32">
<path d="M1.074 1.074c0.669-0.669 1.755-0.669 2.424 0l12.502 12.502 12.502-12.502c0.669-0.669 1.755-0.669 2.424 0s0.669 1.755 0 2.424l-12.502 12.502 12.502 12.502c0.669 0.669 0.669 1.755 0 2.424s-1.755 0.669-2.424 0l-12.502-12.502-12.502 12.502c-0.669 0.669-1.755 0.669-2.424 0s-0.669-1.755 0-2.424l12.502-12.502-12.502-12.502c-0.669-0.669-0.669-1.755 0-2.424z"></path>
</symbol>
<symbol id="icon-open" viewBox="0 0 48 32">
<path fill="#fff" style="fill: var(--color1, #fff)" d="M2.667 32c-0.756 0-1.388-0.256-1.899-0.768s-0.766-1.145-0.768-1.899c-0.002-0.754 0.254-1.387 0.768-1.899s1.147-0.768 1.899-0.768h42.667c0.756 0 1.389 0.256 1.901 0.768s0.767 1.145 0.765 1.899c-0.002 0.754-0.258 1.388-0.768 1.901s-1.143 0.769-1.899 0.765h-42.667zM2.667 18.667c-0.756 0-1.388-0.256-1.899-0.768s-0.766-1.145-0.768-1.899c-0.002-0.754 0.254-1.387 0.768-1.899s1.147-0.768 1.899-0.768h42.667c0.756 0 1.389 0.256 1.901 0.768s0.767 1.145 0.765 1.899c-0.002 0.754-0.258 1.388-0.768 1.901s-1.143 0.769-1.899 0.765h-42.667zM2.667 5.333c-0.756 0-1.388-0.256-1.899-0.768s-0.766-1.145-0.768-1.899c-0.002-0.754 0.254-1.387 0.768-1.899s1.147-0.768 1.899-0.768h42.667c0.756 0 1.389 0.256 1.901 0.768s0.767 1.145 0.765 1.899c-0.002 0.754-0.258 1.388-0.768 1.901s-1.143 0.769-1.899 0.765h-42.667z"></path>
</symbol>
<symbol id="icon-instagram" viewBox="0 0 32 32">
<path fill="none" stroke="#fff" style="stroke: var(--color1, #fff)" stroke-linejoin="miter" stroke-linecap="butt" stroke-miterlimit="4" stroke-width="2.6667" d="M4 14.667c0-5.028 0-7.543 1.563-9.104s4.076-1.563 9.104-1.563h2.667c5.028 0 7.543 0 9.104 1.563s1.563 4.076 1.563 9.104v2.667c0 5.028 0 7.543-1.563 9.104s-4.076 1.563-9.104 1.563h-2.667c-5.028 0-7.543 0-9.104-1.563s-1.563-4.076-1.563-9.104v-2.667z"></path>
<path fill="#fff" style="fill: var(--color1, #fff)" d="M22 12c1.105 0 2-0.895 2-2s-0.895-2-2-2c-1.105 0-2 0.895-2 2s0.895 2 2 2z"></path>
<path fill="none" stroke="#fff" style="stroke: var(--color1, #fff)" stroke-linejoin="miter" stroke-linecap="butt" stroke-miterlimit="4" stroke-width="2.6667" d="M16 20c2.209 0 4-1.791 4-4s-1.791-4-4-4c-2.209 0-4 1.791-4 4s1.791 4 4 4z"></path>
</symbol>
<symbol id="icon-whatsapp" viewBox="0 0 32 32">
<path fill="#fff" style="fill: var(--color1, #fff)" d="M25.4 6.547c-1.223-1.235-2.679-2.213-4.283-2.88s-3.326-1.006-5.063-1c-7.28 0-13.213 5.933-13.213 13.213 0 2.333 0.613 4.6 1.76 6.6l-1.867 6.853 7-1.84c1.933 1.053 4.107 1.613 6.32 1.613 7.28 0 13.213-5.933 13.213-13.213 0-3.533-1.373-6.853-3.867-9.347zM16.053 26.867c-1.973 0-3.907-0.533-5.6-1.533l-0.4-0.24-4.16 1.093 1.107-4.053-0.267-0.413c-1.097-1.751-1.679-3.774-1.68-5.84 0-6.053 4.933-10.987 10.987-10.987 2.933 0 5.693 1.147 7.76 3.227 1.023 1.018 1.835 2.23 2.386 3.564s0.833 2.765 0.827 4.209c0.027 6.053-4.907 10.973-10.96 10.973zM22.080 18.653c-0.333-0.16-1.96-0.96-2.253-1.080-0.307-0.107-0.52-0.16-0.747 0.16-0.227 0.333-0.853 1.080-1.040 1.293-0.187 0.227-0.387 0.253-0.72 0.080-0.333-0.16-1.4-0.52-2.653-1.64-0.987-0.88-1.64-1.96-1.84-2.293-0.187-0.333-0.027-0.507 0.147-0.68 0.147-0.147 0.333-0.387 0.493-0.573s0.227-0.333 0.333-0.547c0.107-0.227 0.053-0.413-0.027-0.573s-0.747-1.787-1.013-2.453c-0.267-0.64-0.547-0.56-0.747-0.573h-0.64c-0.227 0-0.573 0.080-0.88 0.413-0.293 0.333-1.147 1.133-1.147 2.76s1.187 3.2 1.347 3.413c0.16 0.227 2.333 3.56 5.64 4.987 0.787 0.347 1.4 0.547 1.88 0.693 0.787 0.253 1.507 0.213 2.080 0.133 0.64-0.093 1.96-0.8 2.227-1.573 0.28-0.773 0.28-1.427 0.187-1.573s-0.293-0.213-0.627-0.373z"></path>
</symbol>
<symbol id="icon-youtube" viewBox="0 0 32 32">
<path fill="#fff" style="fill: var(--color1, #fff)" d="M16 5.333c1.14 0 2.309 0.029 3.443 0.077l1.339 0.064 1.281 0.076 1.2 0.081 1.096 0.085c1.19 0.091 2.309 0.598 3.161 1.433s1.382 1.944 1.497 3.131l0.053 0.567 0.1 1.213c0.093 1.257 0.163 2.628 0.163 3.939s-0.069 2.681-0.163 3.939l-0.1 1.213-0.053 0.567c-0.115 1.188-0.645 2.297-1.498 3.132s-1.972 1.342-3.162 1.432l-1.093 0.084-1.2 0.083-1.283 0.076-1.339 0.064c-1.147 0.050-2.295 0.075-3.443 0.077-1.148-0.002-2.296-0.028-3.443-0.077l-1.339-0.064-1.281-0.076-1.2-0.083-1.096-0.084c-1.19-0.091-2.309-0.598-3.161-1.433s-1.382-1.944-1.497-3.131l-0.053-0.567-0.1-1.213c-0.102-1.311-0.156-2.624-0.163-3.939 0-1.311 0.069-2.681 0.163-3.939l0.1-1.213 0.053-0.567c0.115-1.187 0.645-2.296 1.497-3.131s1.971-1.342 3.16-1.433l1.095-0.085 1.2-0.081 1.283-0.076 1.339-0.064c1.147-0.050 2.296-0.075 3.444-0.077zM16 8c-1.1 0-2.232 0.029-3.333 0.075l-1.304 0.063-1.252 0.073-1.176 0.080-1.077 0.084c-0.566 0.040-1.1 0.279-1.507 0.675s-0.66 0.924-0.714 1.489c-0.156 1.612-0.303 3.619-0.303 5.461s0.147 3.849 0.303 5.461c0.113 1.163 1.036 2.067 2.221 2.164l1.077 0.083 1.176 0.080 1.252 0.075 1.304 0.063c1.101 0.045 2.233 0.075 3.333 0.075s2.232-0.029 3.333-0.075l1.304-0.063 1.252-0.073 1.176-0.080 1.077-0.084c0.566-0.040 1.1-0.279 1.507-0.675s0.66-0.924 0.714-1.489c0.156-1.612 0.303-3.619 0.303-5.461s-0.147-3.849-0.303-5.461c-0.054-0.565-0.307-1.093-0.714-1.489s-0.941-0.635-1.507-0.675l-1.077-0.083-1.176-0.080-1.252-0.075-1.304-0.063c-1.111-0.048-2.222-0.073-3.333-0.075zM13.333 12.767c-0-0.13 0.032-0.259 0.093-0.374s0.149-0.214 0.257-0.287c0.108-0.073 0.231-0.12 0.361-0.134s0.261 0.003 0.382 0.050l0.108 0.053 5.6 3.232c0.111 0.064 0.206 0.155 0.275 0.263s0.111 0.232 0.122 0.361c0.011 0.128-0.009 0.257-0.058 0.376s-0.127 0.224-0.226 0.307l-0.113 0.080-5.6 3.233c-0.113 0.065-0.24 0.102-0.37 0.107s-0.26-0.022-0.377-0.078c-0.118-0.057-0.219-0.141-0.297-0.246s-0.128-0.227-0.147-0.356l-0.008-0.12v-6.467z"></path>
</symbol>
<symbol id="icon-linkedin" viewBox="0 0 32 32">
<path fill="#fff" style="fill: var(--color1, #fff)" d="M9.253 6.667c-0 0.707-0.282 1.385-0.782 1.885s-1.179 0.78-1.886 0.78c-0.707-0-1.385-0.282-1.885-0.782s-0.78-1.179-0.78-1.886c0-0.707 0.282-1.385 0.782-1.885s1.179-0.78 1.886-0.78c0.707 0 1.385 0.282 1.885 0.782s0.78 1.179 0.78 1.886zM9.333 11.307h-5.333v16.693h5.333v-16.693zM17.76 11.307h-5.307v16.693h5.253v-8.76c0-4.88 6.36-5.333 6.36 0v8.76h5.267v-10.573c0-8.227-9.413-7.92-11.627-3.88l0.053-2.24z"></path>
</symbol>
<symbol id="icon-telegram" viewBox="0 0 32 32">
<path fill="#fff" style="fill: var(--color1, #fff)" d="M29.12 8.075c0.058-0.353 0.021-0.715-0.109-1.048s-0.346-0.626-0.627-0.848c-0.281-0.221-0.616-0.363-0.971-0.411s-0.715 0-1.045 0.139l-22.8 9.6c-1.589 0.669-1.671 2.968 0 3.661 1.655 0.689 3.333 1.32 5.032 1.891 1.557 0.515 3.256 0.991 4.617 1.125 0.372 0.445 0.84 0.875 1.317 1.267 0.729 0.6 1.607 1.217 2.513 1.809 1.816 1.187 3.831 2.321 5.188 3.060 1.623 0.88 3.565-0.133 3.856-1.903l3.027-18.343zM6.125 17.324l20.165-8.491-2.824 17.12c-1.332-0.724-3.251-1.808-4.96-2.925-0.788-0.506-1.548-1.053-2.279-1.639-0.195-0.159-0.385-0.326-0.568-0.499l5.281-5.28c0.25-0.25 0.391-0.589 0.391-0.943s-0.14-0.693-0.39-0.943-0.589-0.391-0.943-0.391c-0.354-0-0.693 0.14-0.943 0.39l-5.783 5.783c-0.979-0.125-2.341-0.488-3.837-0.981-1.114-0.371-2.217-0.772-3.309-1.203l-0.001 0.001z"></path>
</symbol>
<symbol id="icon-eye1" viewBox="0 0 32 32">
<path fill="#fff" style="fill: var(--color1, #fff)" d="M24.833 0h-17c-0.663 0-1.299 0.263-1.768 0.732s-0.732 1.105-0.732 1.768v27c0 0.663 0.263 1.299 0.732 1.768s1.105 0.732 1.768 0.732h17c0.663 0 1.299-0.263 1.768-0.732s0.732-1.105 0.732-1.768v-27c0-0.663-0.263-1.299-0.732-1.768s-1.105-0.732-1.768-0.732zM24.833 29.5h-17v-27h17v27z"></path>
<path fill="#fff" style="fill: var(--color1, #fff)" d="M16 27c0.884 0 1.6-0.672 1.6-1.5s-0.716-1.5-1.6-1.5c-0.884 0-1.6 0.672-1.6 1.5s0.716 1.5 1.6 1.5z"></path>
</symbol>
<symbol id="icon-eye-off1" viewBox="0 0 32 32">
<path stroke-linejoin="round" stroke-linecap="round" stroke-miterlimit="4" stroke-width="0.7547" d="M2.667 16c0 7.364 5.969 13.333 13.333 13.333s13.333-5.969 13.333-13.333c0-7.364-5.969-13.333-13.333-13.333s-13.333 5.969-13.333 13.333zM2.667 16v13.333"></path>
</symbol>
<symbol id="icon-option" viewBox="0 0 32 32">
<path stroke-linejoin="round" stroke-linecap="round" stroke-miterlimit="4" stroke-width="3.5556" d="M8 12l8 8 8-8"></path>
</symbol>
<symbol id="icon-eye" viewBox="0 0 32 32">
<path stroke-linejoin="round" stroke-linecap="round" stroke-miterlimit="4" stroke-width="2.9091" d="M1.332 16c0 0 5.333-10.667 14.667-10.667s14.667 10.667 14.667 10.667-5.333 10.667-14.667 10.667c-9.333 0-14.667-10.667-14.667-10.667z"></path>
<path stroke-linejoin="round" stroke-linecap="round" stroke-miterlimit="4" stroke-width="2.9091" d="M16 20c2.209 0 4-1.791 4-4s-1.791-4-4-4c-2.209 0-4 1.791-4 4s1.791 4 4 4z"></path>
</symbol>
<symbol id="icon-eye-off" viewBox="0 0 32 32">
<path stroke-linejoin="round" stroke-linecap="round" stroke-miterlimit="4" stroke-width="2.9091" d="M23.922 23.92c-2.279 1.737-5.055 2.7-7.92 2.747-9.333 0-14.667-10.667-14.667-10.667 1.659-3.091 3.959-5.791 6.747-7.92M13.202 5.653c0.918-0.215 1.857-0.322 2.8-0.32 9.333 0 14.667 10.667 14.667 10.667-0.809 1.514-1.775 2.94-2.88 4.253M18.828 18.827c-0.366 0.393-0.808 0.708-1.298 0.927s-1.020 0.336-1.557 0.346c-0.537 0.009-1.071-0.089-1.569-0.291s-0.951-0.5-1.33-0.88c-0.38-0.38-0.679-0.832-0.88-1.33s-0.3-1.032-0.29-1.569c0.009-0.537 0.127-1.067 0.346-1.557s0.534-0.932 0.927-1.298"></path>
<path stroke-linejoin="round" stroke-linecap="round" stroke-miterlimit="4" stroke-width="2.9091" d="M1.335 1.333l29.333 29.333"></path>
</symbol>
<symbol id="icon-open-faq" viewBox="0 0 32 32">
<path fill="#fff" style="fill: var(--color1, #fff)" d="M13.714 0h4.571v32h-4.571v-32z"></path>
<path fill="#fff" style="fill: var(--color1, #fff)" d="M0 18.286v-4.571h32v4.571h-32z"></path>
</symbol>
<symbol id="icon-android" viewBox="0 0 32 32">
<path d="M5.895 0.013c-0.097-0.009-0.211-0.013-0.325-0.013-1.477 0-2.764 0.815-3.435 2.020l-0.010 0.020c-0.34 0.572-0.541 1.261-0.541 1.996 0 1.465 0.797 2.744 1.98 3.428l0.019 0.010 14.133 8.085 6.387-3.563c0.66-0.373 1.45-0.592 2.291-0.592 0.043 0 0.087 0.001 0.13 0.002l-0.006-0-18.916-10.841c-0.489-0.3-1.070-0.498-1.694-0.551l-0.014-0.001zM1.552 6.357v19.312c0.823-1.354 2.288-2.246 3.962-2.249h0.001c1.666 0.003 3.124 0.886 3.936 2.209l0.011 0.020 0.005-14.040-6.215-3.556c-0.711-0.411-1.287-0.985-1.688-1.673l-0.012-0.022zM26.112 12.076c-0.625 0.049-1.199 0.23-1.706 0.516l0.021-0.011-14.293 7.971c0.004 2.497-0.015 4.993 0.004 7.489 0 0.533-0.096 1.317-0.528 2.141l16.731-9.636 1.983-1.107c1.273-0.678 2.126-1.998 2.126-3.516 0-0.416-0.064-0.817-0.183-1.194l0.008 0.028c-0.593-1.586-2.095-2.694-3.856-2.694-0.107 0-0.214 0.004-0.319 0.012l0.014-0.001zM5.515 24.087c-0 0-0.001 0-0.001 0-2.185 0-3.957 1.771-3.957 3.957s1.771 3.956 3.955 3.957h0c0 0 0.001 0 0.001 0 2.185 0 3.957-1.771 3.957-3.957s-1.771-3.956-3.955-3.957h-0z"></path>
</symbol>
<symbol id="icon-apple" viewBox="0 0 32 32">
<path d="M16.203 9.195c-1.264 0-3.22-1.437-5.28-1.387-2.72 0.036-5.213 1.577-6.615 4.019-2.823 4.9-0.728 12.137 2.025 16.12 1.351 1.939 2.944 4.12 5.056 4.052 2.027-0.087 2.787-1.316 5.247-1.316 2.441 0 3.133 1.316 5.28 1.264 2.183-0.035 3.568-1.973 4.901-3.931 1.541-2.251 2.181-4.433 2.216-4.553-0.052-0.017-4.243-1.628-4.293-6.476-0.035-4.053 3.307-5.992 3.463-6.079-1.905-2.787-4.831-3.099-5.853-3.168-2.667-0.208-4.9 1.453-6.147 1.453zM20.707 5.107c1.124-1.349 1.867-3.236 1.66-5.107-1.609 0.069-3.549 1.073-4.709 2.424-1.040 1.195-1.939 3.117-1.697 4.952 1.784 0.139 3.62-0.917 4.745-2.268z"></path>
</symbol>
<symbol id="icon-next-go" viewBox="0 0 32 32">
<path d="M12.8 17.623c-0.214-0.212-0.384-0.465-0.5-0.744s-0.176-0.577-0.176-0.879c0-0.302 0.060-0.601 0.176-0.879s0.286-0.531 0.5-0.744l10.491-10.469c0.214-0.212 0.384-0.465 0.5-0.744s0.176-0.577 0.176-0.879c0-0.302-0.060-0.601-0.176-0.879s-0.286-0.531-0.5-0.744c-0.428-0.426-1.008-0.665-1.611-0.665s-1.183 0.239-1.611 0.665l-10.491 10.491c-1.284 1.286-2.005 3.029-2.005 4.846s0.721 3.56 2.005 4.846l10.491 10.492c0.426 0.422 1 0.66 1.6 0.663 0.301 0.002 0.599-0.056 0.878-0.17s0.532-0.281 0.745-0.493c0.214-0.213 0.384-0.465 0.5-0.744s0.176-0.577 0.176-0.879c0-0.302-0.060-0.601-0.176-0.879s-0.286-0.531-0.5-0.744l-10.491-10.469z"></path>
</symbol>
<symbol id="icon-next" viewBox="0 0 32 32">
<path d="M19.2 17.623c0.214-0.212 0.384-0.465 0.5-0.744s0.176-0.577 0.176-0.879c0-0.302-0.060-0.601-0.176-0.879s-0.286-0.531-0.5-0.744l-10.491-10.469c-0.214-0.212-0.384-0.465-0.5-0.744s-0.176-0.577-0.176-0.879c0-0.302 0.060-0.601 0.176-0.879s0.286-0.531 0.5-0.744c0.428-0.426 1.008-0.665 1.611-0.665s1.183 0.239 1.611 0.665l10.491 10.491c1.284 1.286 2.005 3.029 2.005 4.846s-0.721 3.56-2.005 4.846l-10.491 10.491c-0.426 0.422-1 0.66-1.6 0.663-0.301 0.002-0.599-0.056-0.877-0.17s-0.532-0.281-0.745-0.493c-0.214-0.213-0.384-0.465-0.5-0.744s-0.176-0.577-0.176-0.879 0.060-0.6 0.176-0.879c0.116-0.279 0.286-0.531 0.5-0.744l10.491-10.469z"></path>
</symbol>
<symbol id="icon-rocket-launch" viewBox="0 0 33 32">
<path d="M4.090 22.735c0.334-0.26 0.816-0.199 1.075 0.135s0.199 0.816-0.135 1.075l-3.47 2.694-0.026 3.547 4.18-0.233 2.312-3.674c0.225-0.358 0.697-0.464 1.054-0.238s0.464 0.697 0.238 1.054l-2.508 3.986c-0.125 0.215-0.352 0.363-0.62 0.379l-5.385 0.299c-0.016 0-0.029 0-0.045 0-0.421-0.003-0.763-0.344-0.76-0.765l0.034-4.675c-0.019-0.246 0.085-0.498 0.294-0.662l3.761-2.922zM10.669 14.253c1.746-5.215 4.095-8.911 7.403-11.241 3.435-2.416 7.848-3.332 13.631-2.914 0.4 0.029 0.705 0.358 0.713 0.75 0.559 6.262-0.654 10.701-3.245 14.065-2.495 3.234-6.233 5.422-10.876 7.258v6.111c0 0.299-0.172 0.559-0.424 0.686l-4.725 2.919c-0.358 0.222-0.829 0.111-1.052-0.249-0.058-0.095-0.095-0.199-0.109-0.302v0c-1.046-7.997-2.159-8.381-8.696-10.643-0.779-0.27-1.624-0.562-2.193-0.763-0.397-0.14-0.607-0.577-0.466-0.977 0.029-0.085 0.074-0.162 0.127-0.228l3.115-4.442c0.156-0.223 0.408-0.336 0.662-0.326v0l6.135 0.297zM22.43 6.813c0.89 0 1.695 0.36 2.278 0.943s0.943 1.388 0.943 2.278c0 0.89-0.36 1.695-0.943 2.278s-1.388 0.943-2.278 0.943c-0.89 0-1.695-0.36-2.278-0.943s-0.943-1.388-0.943-2.278c0-0.89 0.36-1.695 0.943-2.278s1.388-0.943 2.278-0.943v0zM23.966 8.497c-0.392-0.392-0.935-0.636-1.536-0.636-0.599 0-1.142 0.244-1.536 0.636-0.392 0.392-0.636 0.935-0.636 1.536 0 0.599 0.244 1.142 0.636 1.536 0.392 0.392 0.935 0.636 1.536 0.636 0.599 0 1.142-0.244 1.536-0.636 0.392-0.392 0.636-0.935 0.636-1.536s-0.244-1.144-0.636-1.536v0zM18.952 4.265c-3.128 2.204-5.345 5.811-7.001 10.974-0.090 0.342-0.408 0.588-0.776 0.569l-6.296-0.307-2.326 3.319c0.493 0.172 0.871 0.305 1.234 0.429 6.972 2.41 8.421 2.911 9.554 10.72l3.42-2.111v-6.206h0.003c0-0.307 0.188-0.596 0.49-0.713 4.625-1.78 8.32-3.867 10.704-6.961 2.275-2.953 3.377-6.874 2.983-12.394-5.094-0.281-8.985 0.57-11.988 2.681v0z"></path>
</symbol>
<symbol id="icon-shield-lock" viewBox="0 0 29 32">
<path d="M14.509 0v0c-4.698 3.649-9.546 4.718-14.487 4.459-0.412 15.707 5.146 24.111 14.543 27.541 9.731-3.665 15.222-12.446 14.487-27.315-4.209 0.385-9.114-1.243-14.543-4.685zM10.796 14.716h0.374v-0.867c0-0.961 0.379-1.836 0.989-2.472 0.615-0.641 1.464-1.039 2.399-1.039s1.785 0.398 2.399 1.039c0.61 0.636 0.989 1.512 0.989 2.472v0.867h0.374c0.304 0 0.553 0.249 0.553 0.553v5.842c0 0.304-0.249 0.553-0.553 0.553h-7.526c-0.304 0-0.553-0.249-0.553-0.553v-5.842c-0-0.304 0.249-0.553 0.553-0.553v0zM14.105 18.564l-0.597 1.563h2.101l-0.553-1.584c0.351-0.18 0.591-0.546 0.591-0.968 0-0.601-0.487-1.088-1.088-1.088s-1.088 0.487-1.088 1.088c0 0.439 0.26 0.817 0.634 0.989v0zM12.218 14.716h4.683v-0.867c0-0.683-0.266-1.302-0.694-1.749-0.424-0.442-1.007-0.716-1.647-0.716s-1.223 0.274-1.647 0.716c-0.429 0.447-0.694 1.066-0.694 1.749v0.867z"></path>
</symbol>
<symbol id="icon-flash-thunder" viewBox="0 0 22 32">
<path d="M8.067 16.924l-7.548-0.712c-0.315-0.029-0.546-0.309-0.517-0.625 0.007-0.070 0.026-0.136 0.055-0.196l6.864-15.054c0.096-0.211 0.304-0.335 0.521-0.335l9.43-0.002c0.318 0 0.575 0.258 0.575 0.575 0 0.129-0.042 0.247-0.113 0.343l-4.83 7.834 8.679 0.955c0.315 0.034 0.543 0.318 0.508 0.633-0.014 0.13-0.070 0.244-0.154 0.332l0-0-17.603 21.121c-0.202 0.243-0.563 0.276-0.807 0.074-0.19-0.158-0.252-0.413-0.173-0.633l5.112-14.311zM1.429 15.147l7.436 0.701c0.061 0.001 0.124 0.011 0.185 0.033 0.299 0.107 0.455 0.436 0.348 0.735l-4.276 11.961 14.874-17.846-8.519-0.937c-0.089-0.011-0.17-0.040-0.241-0.085l0.002 0.001c-0.269-0.166-0.353-0.52-0.186-0.788l4.792-7.773h-8.035l-6.382 13.996z"></path>
</symbol>
<symbol id="icon-computer-folder" viewBox="0 0 41 32">
<path d="M0.834 6.971h1.512v-3.314c0-0.46 0.373-0.834 0.834-0.834h1.482v-1.99c0-0.46 0.373-0.834 0.834-0.834h13.531c0.46 0 0.834 0.373 0.834 0.834v1.99h18.25c0.46 0 0.834 0.373 0.834 0.834v3.314h1.523c0.46 0 0.834 0.373 0.834 0.834 0 0.061-0.007 0.121-0.020 0.175l-2.917 21.447c-0.094 0.699-0.4 1.348-0.87 1.818-0.464 0.464-1.079 0.753-1.801 0.753h-30.75c-0.726 0-1.354-0.292-1.825-0.76-0.474-0.474-0.776-1.126-0.854-1.835l-2.259-21.51c-0.047-0.457 0.286-0.867 0.743-0.914 0.030-0.003 0.057-0.003 0.087-0.007v0 0zM3.179 8.641h-1.422l2.161 20.593c0.034 0.329 0.168 0.622 0.37 0.827 0.168 0.168 0.393 0.272 0.649 0.272h30.753c0.252 0 0.464-0.101 0.629-0.266 0.208-0.208 0.346-0.514 0.393-0.857l2.796-20.566-36.329-0.003zM4.013 4.494v2.474l33.264-0.353v-2.121h-18.25c-0.46 0-0.834-0.373-0.834-0.834v-1.99h-11.864v1.99c0 0.46-0.373 0.834-0.834 0.834h-1.482z"></path>
</symbol>
<symbol id="icon-partner-handshake-icon" viewBox="0 0 56 32">
<path d="M44.503 6.445c-0.009 0.086-0.036 0.168-0.077 0.25-0.045 0.191-0.068 0.409-0.068 0.65 0 0.023 0.005 0.045 0.005 0.068v15.8c0.2 0.496 0.446 0.869 0.741 1.101 0.273 0.218 0.609 0.323 1.019 0.305 0.027-0.005 0.059-0.005 0.086-0.005h4.53c0.009 0 0.023 0 0.036 0 0.705 0.036 1.214-0.155 1.555-0.546 0.387-0.446 0.609-1.16 0.687-2.119v0-0.014l1.378-14.254c0-0.023 0-0.045 0.005-0.068 0.096-0.81-0.082-1.337-0.482-1.646-0.459-0.355-1.219-0.5-2.206-0.5-0.023 0-0.045 0.005-0.068 0.005l-5.103-0.005c-0.778 0-1.351 0.155-1.701 0.473-0.146 0.132-0.255 0.3-0.337 0.505v0zM39.509 23.923c-0.109-0.105-0.186-0.241-0.218-0.391l-7.277-13.098c-0.81-1.351-1.537-1.383-2.242-0.964-0.5 0.296-1.028 0.778-1.555 1.26-0.318 0.291-0.637 0.582-0.905 0.805l-1.251 1.032-0.009 0.005c-0.91 0.732-1.937 1.128-2.911 1.205-0.641 0.055-1.26-0.027-1.824-0.241-0.578-0.218-1.087-0.569-1.469-1.046-0.414-0.514-0.687-1.169-0.75-1.942h0.005c-0.014-0.186 0.041-0.373 0.168-0.528l3.975-4.73c-0.837-0.014-1.578 0.1-2.274 0.318-1.060 0.332-2.051 0.905-3.134 1.646-0.123 0.096-0.282 0.155-0.45 0.155h-4.58v8.655l0.018 5.535h2.665c0.255 0 0.5 0.132 0.632 0.368l3.311 5.771c0.482 0.841 0.91 1.569 1.442 2.047 0.5 0.45 1.155 0.728 2.165 0.755 0.378 0.009 0.741-0.055 1.082-0.196 0.209-0.086 0.418-0.205 0.623-0.355l-2.147-4.011c-0.191-0.355-0.055-0.796 0.3-0.982 0.355-0.191 0.796-0.055 0.982 0.3l2.333 4.362c0.869 0.441 1.655 0.578 2.36 0.428 0.646-0.141 1.255-0.528 1.828-1.155l-3.361-5.276c-0.214-0.337-0.118-0.787 0.223-1.005 0.337-0.214 0.787-0.118 1.005 0.223l3.538 5.558c0.623 0.255 1.219 0.309 1.787 0.155 0.541-0.15 1.087-0.496 1.628-1.060l-3.206-6.040c-0.191-0.355-0.055-0.8 0.305-0.987 0.355-0.191 0.8-0.055 0.987 0.305l3.32 6.249c0.432 0.25 0.932 0.314 1.41 0.236 0.418-0.068 0.823-0.25 1.155-0.509 0.318-0.255 0.569-0.582 0.687-0.955 0.132-0.405 0.118-0.878-0.096-1.392l-0.277-0.509zM40.473 22.658h2.429v-15.245c0-0.018 0-0.041 0.005-0.059 0-0.237 0.014-0.464 0.045-0.678l-2.474-1.642c-0.014-0.009-0.027-0.018-0.041-0.027-0.323-0.214-0.709-0.487-1.096-0.76-1.405-0.982-2.847-1.997-4.407-2.406-0.841-0.223-1.815-0.368-2.806-0.387-0.869-0.018-1.751 0.064-2.583 0.282-0.496 0.127-0.978 0.305-1.424 0.541-0.396 0.209-0.764 0.464-1.092 0.773l-1.655 1.969c-0.050 0.1-0.123 0.182-0.209 0.25l-4.566 5.439c0.068 0.346 0.205 0.637 0.391 0.873 0.218 0.268 0.509 0.468 0.841 0.596 0.355 0.132 0.764 0.182 1.192 0.146 0.696-0.059 1.442-0.346 2.11-0.882v0l1.251-1.032c0.318-0.264 0.587-0.509 0.855-0.75 0.587-0.537 1.169-1.069 1.787-1.437 1.424-0.85 2.843-0.878 4.243 1.474l0.014 0.023 7.19 12.939zM43.175 24.118h-1.942c0.264 0.769 0.25 1.496 0.041 2.142-0.214 0.664-0.632 1.228-1.169 1.655-0.523 0.414-1.16 0.7-1.828 0.81-0.65 0.109-1.333 0.050-1.969-0.214-0.737 0.769-1.514 1.255-2.324 1.478-0.814 0.223-1.637 0.177-2.47-0.114-0.791 0.878-1.665 1.428-2.629 1.633-0.982 0.214-2.024 0.064-3.129-0.455-0.346 0.268-0.705 0.482-1.082 0.637-0.532 0.223-1.092 0.323-1.678 0.305-1.401-0.041-2.342-0.455-3.093-1.128-0.719-0.641-1.196-1.46-1.742-2.406l-3.097-5.403h-2.401c-0.141 0.696-0.382 1.287-0.746 1.76-0.614 0.791-1.51 1.21-2.756 1.183-0.014 0-0.027 0-0.041 0h-4.116c-1.037 0.168-1.924-0.086-2.62-0.891-0.619-0.714-1.037-1.874-1.219-3.575-0.005-0.018-0.005-0.041-0.009-0.064l-1.082-13.417c-0.214-1.446 0.023-2.47 0.605-3.17 0.587-0.705 1.474-1.023 2.561-1.073 0.032-0.005 0.059-0.005 0.091-0.005l5.544 0.005c1.046-0.014 1.947 0.164 2.629 0.605 0.55 0.355 0.946 0.855 1.146 1.537h4.516c1.137-0.764 2.197-1.364 3.37-1.733 1.155-0.359 2.388-0.487 3.866-0.309l1.524-1.801c0.027-0.036 0.055-0.068 0.091-0.1 0.432-0.409 0.914-0.746 1.433-1.019 0.546-0.287 1.128-0.505 1.737-0.664 0.964-0.25 1.978-0.346 2.97-0.327 1.123 0.023 2.215 0.186 3.156 0.432 1.801 0.478 3.356 1.565 4.866 2.624 0.337 0.236 0.673 0.473 1.073 0.737 0.014 0.009 0.027 0.018 0.041 0.027l2.192 1.464c0.109-0.155 0.236-0.296 0.382-0.423 0.628-0.564 1.524-0.841 2.679-0.841v-0.005h5.103c0.018 0 0.041 0 0.059 0.005 1.305-0.005 2.37 0.232 3.106 0.8 0.819 0.632 1.205 1.592 1.041 2.97 0 0.014-0.005 0.023-0.005 0.036l-1.378 14.24c-0.1 1.273-0.441 2.269-1.041 2.961-0.641 0.737-1.528 1.101-2.692 1.051v0h-4.534c-0.782 0.041-1.451-0.173-2.010-0.619-0.409-0.332-0.75-0.778-1.019-1.342v0zM6.367 18.583c0.546 0 0.987 0.441 0.987 0.987s-0.441 0.987-0.987 0.987c-0.546 0-0.987-0.441-0.987-0.987s0.441-0.987 0.987-0.987v0zM49.323 18.583c0.546 0 0.987 0.441 0.987 0.987s-0.441 0.987-0.987 0.987c-0.546 0-0.987-0.441-0.987-0.987s0.441-0.987 0.987-0.987v0zM11.347 14.381l-0.027-7.7c0-0.014 0-0.027 0-0.045-0.077-0.482-0.287-0.805-0.596-1.005-0.423-0.273-1.055-0.378-1.833-0.368h-0.009v0.005h-5.549c-0.009 0-0.018 0-0.027 0-0.687 0.032-1.21 0.196-1.505 0.55-0.318 0.378-0.428 1.032-0.277 2.047 0.005 0.023 0.005 0.041 0.005 0.064l1.082 13.43v0.023c0.146 1.392 0.446 2.283 0.869 2.774 0.337 0.391 0.796 0.5 1.346 0.4 0.041-0.009 0.086-0.014 0.127-0.014v-0.005h4.161c0.027 0 0.055 0 0.077 0.005 0.737 0.014 1.246-0.205 1.565-0.619 0.373-0.482 0.555-1.237 0.582-2.21h-0.005v-7.331h0.014zM33.283 9.715v0 0 0z"></path>
</symbol>
<symbol id="icon-globe-line" viewBox="0 0 32 32">
<path d="M30.843 16.014c-0.020 0.299-0.029 0.543-0.029 0.66 0 0.276-0.193 0.506-0.451 0.564l-0.76 0.233c-0.056 0.017-0.114 0.026-0.17 0.026v0.002h-0.121c-0.269 0-0.496-0.184-0.56-0.434l-0.667-2.033-0.001 0-0.121-0.382-1.127 2.025c-0.049 0.087-0.116 0.157-0.195 0.207l0.001 0.001-0.587 0.373c-0.27 0.171-0.627 0.091-0.798-0.178-0.043-0.068-0.070-0.142-0.082-0.217l-0.571-3.209-0.865-0.613-2.029-0.362c0.070 0.11 0.14 0.219 0.21 0.327 0.361 0.558 0.699 1.079 0.811 1.616 0.18 0.863-0.142 1.585-1.579 2.101 0.041 0.025 0.082 0.052 0.123 0.083 0.56 0.428 0.695 1.060-0.526 2.655-0.308 0.403-0.573 0.759-0.796 1.068-0.175 0.244-0.338 0.478-0.489 0.703l0.275 1.999c0.037 0.269-0.028 0.531-0.201 0.784-0.129 0.187-0.319 0.365-0.573 0.532-0.168 0.11-0.312 0.221-0.43 0.333-0.047 0.044-0.089 0.087-0.127 0.131l0.126 0.571c0.060 0.274-0.084 0.545-0.332 0.652l0 0.001-0.212 0.092c-0.042 0.164-0.102 0.325-0.18 0.483-0.126 0.254-0.299 0.502-0.521 0.743-0.236 0.258-0.496 0.453-0.779 0.586-0.296 0.138-0.608 0.207-0.936 0.207h-1.018c-0.319 0-0.578-0.259-0.578-0.578 0-0.261-0.032-0.538-0.095-0.832-0.065-0.304-0.164-0.629-0.297-0.977-0.15-0.392-0.264-0.746-0.343-1.063-0.084-0.338-0.126-0.631-0.126-0.879 0-0.221 0.019-0.42 0.057-0.595 0.045-0.209 0.118-0.387 0.218-0.533 0.010-0.015 0.022-0.059 0.035-0.132 0.020-0.112 0.031-0.265 0.031-0.461 0-0.149-0.026-0.306-0.077-0.471-0.056-0.182-0.144-0.377-0.261-0.582-0.146-0.256-0.257-0.464-0.331-0.621-0.107-0.225-0.16-0.406-0.16-0.54 0-0.944-0.324-1.152-0.773-1.152-0.27 0-0.574 0.041-0.89 0.084-0.393 0.053-0.803 0.109-1.205 0.109-0.303 0-0.603-0.139-0.895-0.414-0.215-0.203-0.441-0.496-0.673-0.879-0.21-0.347-0.369-0.627-0.477-0.837-0.148-0.291-0.222-0.513-0.222-0.662 0-0.381-0-0.414-0.001-0.444-0.015-1.605-0.029-3.122 1.518-4.24 0.642-0.912 1.22-1.504 1.915-1.88 0.724-0.392 1.529-0.529 2.618-0.529 0.319 0 0.578 0.259 0.578 0.578v0.82l0.694 0.304 0.010-0.047c0.066-0.312 0.373-0.511 0.684-0.445l0.002 0.001v-0.001c0.215 0.046 0.41 0.101 0.588 0.166 0.19 0.069 0.354 0.148 0.494 0.238 0.073 0.047 0.205 0.089 0.363 0.117 0.177 0.031 0.366 0.037 0.526 0.005 0.085-0.017 0.148-0.037 0.167-0.059l0-0.002c-0 0-0.001 0-0-0.001l0.004-0.018c0.015-0.086 0.027-0.173 0.038-0.261l-0.687 0.061c-0.247 0.021-0.471-0.116-0.571-0.328l-0.001 0c-0.227-0.477-0.705-0.721-1.306-1.028-0.646-0.33-1.406-0.718-2.225-1.498-2.764 0.98-3.647 1.115-3.868 0.499-0.13-0.361 0.057-0.651 0.309-1.040 0.227-0.351 0.55-0.851 0.55-1.32 0-0.251 0.161-0.465 0.385-0.545l2.326-1.063c-0.251-0.044-0.561-0.099-0.819-1.351-0.053-0.257 0.075-0.509 0.296-0.625l-0-0.001c0.181-0.096 0.395-0.226 0.639-0.392 0.248-0.168 0.545-0.384 0.89-0.648l0.022-0.017c-1.183 0.184-2.32 0.509-3.41 0.975l0 0.001c-0.91 0.391-1.758 0.85-2.543 1.376-0.786 0.528-1.515 1.127-2.185 1.8l-0.002 0.002c-0.673 0.67-1.272 1.399-1.8 2.185-0.527 0.785-0.985 1.633-1.377 2.543-0.004 0.009-0.008 0.018-0.013 0.028-0.38 0.89-0.664 1.812-0.855 2.767-0.193 0.964-0.289 1.96-0.289 2.987s0.097 2.023 0.29 2.987c0.010 0.052 0.021 0.104 0.032 0.156l2.675 1.279c0.2 0.096 0.32 0.292 0.327 0.499h0c0.029 0.765-0.175 1.33-0.385 1.91-0.156 0.431-0.315 0.872-0.34 1.392-0.003 0.055-0.013 0.108-0.029 0.157 0.518 0.765 1.105 1.475 1.762 2.13l0.002 0.002v-0c0.67 0.673 1.399 1.272 2.185 1.8 0.785 0.527 1.633 0.985 2.543 1.377 0.009 0.004 0.018 0.008 0.028 0.013 0.889 0.377 1.812 0.662 2.767 0.853 0.964 0.193 1.96 0.289 2.987 0.289s2.023-0.096 2.987-0.289c0.965-0.193 1.897-0.482 2.795-0.865l-0.001-0.001c0.91-0.391 1.758-0.85 2.544-1.377 0.786-0.528 1.515-1.127 2.185-1.8l0.002-0.002c0.672-0.67 1.272-1.399 1.799-2.185 0.527-0.785 0.985-1.633 1.377-2.543 0.004-0.009 0.008-0.018 0.013-0.028 0.378-0.889 0.662-1.811 0.853-2.766 0.191-0.96 0.288-1.951 0.289-2.973v0zM9.765 1.25c1.95-0.834 4.031-1.25 6.235-1.25 1.102 0 2.173 0.104 3.213 0.312 1.027 0.206 2.025 0.514 2.994 0.926 0.010 0.004 0.021 0.008 0.032 0.012 0.966 0.416 1.876 0.908 2.728 1.48 0.85 0.57 1.637 1.217 2.359 1.942l0.002 0.002c0.725 0.722 1.372 1.509 1.942 2.359 0.572 0.852 1.065 1.762 1.48 2.728l-0.001 0 0.001 0.002c0.418 0.978 0.73 1.985 0.938 3.022 0.208 1.040 0.312 2.111 0.312 3.213s-0.104 2.173-0.312 3.213c-0.205 1.027-0.515 2.025-0.926 2.994-0.004 0.010-0.008 0.021-0.012 0.031-0.416 0.966-0.909 1.876-1.48 2.728-0.57 0.85-1.217 1.637-1.942 2.359l-0.002 0.002c-0.722 0.725-1.509 1.372-2.359 1.942-0.852 0.572-1.762 1.065-2.728 1.48l-0-0.001-0.002 0.001c-0.978 0.418-1.985 0.731-3.022 0.938-1.040 0.208-2.111 0.312-3.213 0.312s-2.173-0.104-3.213-0.312c-1.027-0.205-2.025-0.514-2.993-0.926-0.011-0.004-0.021-0.008-0.031-0.012-0.966-0.416-1.876-0.908-2.729-1.48-0.85-0.57-1.637-1.217-2.359-1.942l-0.002-0.002c-0.724-0.722-1.371-1.509-1.942-2.359-0.572-0.852-1.065-1.762-1.48-2.728l0.001-0.001-0.001-0.002c-0.418-0.978-0.731-1.985-0.938-3.022-0.208-1.040-0.312-2.111-0.312-3.213s0.104-2.173 0.312-3.213c0.205-1.027 0.514-2.025 0.926-2.994 0.004-0.010 0.008-0.021 0.012-0.031 0.416-0.966 0.908-1.876 1.48-2.728 0.57-0.85 1.217-1.637 1.942-2.359l0.002-0.002c0.722-0.725 1.509-1.372 2.359-1.942 0.852-0.572 1.763-1.065 2.729-1.48l0 0.001 0.002-0zM2.521 21.798c0.126 0.291 0.263 0.579 0.412 0.863 0.026-0.073 0.052-0.147 0.078-0.219 0.135-0.373 0.266-0.738 0.306-1.143l-1.214-0.58c0.121 0.36 0.26 0.72 0.417 1.077l-0.001 0 0.001 0.002zM22.59 2.801c-0.536-0.27-1.095-0.508-1.675-0.715-2.148 0.495-2.769 0.198-3.458-0.131-0.35-0.167-0.724-0.346-1.548-0.346h-0.493c-0.050 0-0.154 0.042-0.312 0.127-0.211 0.113-0.477 0.291-0.796 0.535-0.342 0.261-0.656 0.488-0.945 0.684-0.168 0.114-0.322 0.212-0.461 0.297 0.276 0.064 0.486 0.236 0.633 1.525h-0.001c0.027 0.24-0.101 0.481-0.333 0.587l-2.186 0.998c-0.107 0.634-0.452 1.169-0.707 1.564-0.005 0.008-0.011 0.015-0.017 0.019 0.277-0.166 0.944-0.725 2.531-1.3 0.216-0.093 0.476-0.048 0.647 0.132 0.779 0.815 1.543 1.204 2.182 1.53 0.669 0.341 1.224 0.625 1.62 1.205l0.934-0.083c0.034-0.006 0.069-0.009 0.104-0.009 0.319 0 0.578 0.259 0.578 0.578 0 0.18-0.008 0.365-0.025 0.553-0.016 0.173-0.039 0.353-0.071 0.538-0.001 0.007-0.002 0.014-0.003 0.021-0.027 0.158-0.084 0.299-0.165 0.424-0.205 0.32-0.539 0.498-0.915 0.572-0.305 0.061-0.645 0.053-0.95-0.001-0.302-0.053-0.586-0.155-0.787-0.284-0.042-0.027-0.091-0.053-0.146-0.078l-0.027 0.126h-0.001c-0.008 0.037-0.020 0.074-0.036 0.111-0.127 0.292-0.467 0.425-0.759 0.298l-1.649-0.722c-0.226-0.078-0.389-0.293-0.389-0.546v-0.6c-0.608 0.039-1.083 0.15-1.493 0.372-0.534 0.289-1.005 0.789-1.558 1.584-0.041 0.066-0.096 0.124-0.164 0.171-1.13 0.776-1.118 2.022-1.106 3.341 0.003 0.267 0.005 0.372 0.005 0.453 0 0.027 0.030 0.018 0.092 0.138 0.097 0.189 0.242 0.445 0.436 0.765 0.174 0.288 0.335 0.5 0.479 0.635 0.069 0.065 0.104 0.097 0.104 0.097 0.349 0 0.708-0.049 1.052-0.095 0.367-0.049 0.72-0.097 1.043-0.097 1.122 0 1.93 0.416 1.93 2.308 0 0.035 0.016-0.019 0.047 0.048 0.064 0.135 0.161 0.317 0.29 0.544 0.158 0.277 0.278 0.548 0.36 0.813 0.087 0.28 0.131 0.551 0.131 0.809 0 0.253-0.018 0.476-0.053 0.669-0.043 0.235-0.116 0.427-0.216 0.574-0.015 0.022-0.029 0.063-0.042 0.122-0.020 0.092-0.030 0.21-0.030 0.355 0 0.161 0.030 0.362 0.090 0.603 0.065 0.262 0.166 0.571 0.302 0.928 0.152 0.398 0.268 0.781 0.347 1.148 0.036 0.168 0.064 0.333 0.084 0.493h0.477c0.164 0 0.314-0.031 0.448-0.094 0.147-0.069 0.286-0.175 0.418-0.319 0.144-0.158 0.256-0.317 0.335-0.477 0.070-0.14 0.112-0.279 0.127-0.416 0.014-0.208 0.141-0.401 0.345-0.49l0.059-0.026-0.081-0.366c-0.032-0.144-0.009-0.299 0.077-0.434 0.118-0.186 0.266-0.362 0.442-0.528 0.171-0.162 0.367-0.315 0.588-0.459 0.13-0.085 0.214-0.158 0.257-0.22 0-0 0.001 0 0.001 0.001l0.003 0.002-0.297-2.157c-0.028-0.143-0.003-0.296 0.083-0.428 0.167-0.255 0.379-0.563 0.638-0.922 0.251-0.348 0.522-0.714 0.814-1.095 0.641-0.838 0.762-1.024 0.743-1.038-0.040-0.030-0.136-0.070-0.236-0.111-0.394-0.161-0.828-0.339-1.032-0.921-0.011-0.029-0.020-0.059-0.027-0.091-0.065-0.312 0.135-0.617 0.447-0.682 1.568-0.328 1.956-0.676 1.875-1.061-0.068-0.327-0.349-0.76-0.649-1.223-0.299-0.461-0.615-0.949-0.827-1.482-0.050-0.105-0.070-0.226-0.048-0.349 0.055-0.314 0.354-0.525 0.669-0.47l3.315 0.594c0.081 0.014 0.161 0.046 0.233 0.097l1.127 0.798c0.143 0.083 0.25 0.226 0.28 0.401l0.422 2.367 1.465-2.631c0.066-0.142 0.189-0.257 0.351-0.308 0.304-0.096 0.629 0.073 0.725 0.377l0.525 1.658h-0.001l0.49 1.492c0.018-0.318 0.051-0.732 0.104-1.146 0.054-0.421 0.13-0.841 0.234-1.164 0.076-0.236 0.175-0.437 0.301-0.587-0.086-0.55-0.204-1.091-0.354-1.623-0.181-0.642-0.408-1.267-0.683-1.876-0.278-0.614-0.59-1.198-0.937-1.756-0.351-0.563-0.732-1.093-1.146-1.591-0.418-0.502-0.869-0.971-1.352-1.409-0.479-0.434-0.995-0.84-1.547-1.216-0.547-0.375-1.117-0.712-1.707-1.009v0zM18.595 23.384l-0.003-0.022-0.003-0.002c0.003 0.005 0.009 0.042 0.006 0.024v0zM10.116 7.949c0.022 0.062 0.069 0.056 0.164 0.001l-0.164-0.001z"></path>
</symbol>
<symbol id="icon-check" viewBox="0 0 44 32">
<path d="M0.439 19.783c-0.546-0.494-0.588-1.338-0.094-1.884s1.338-0.588 1.884-0.094l12.129 10.998 27.105-28.387c0.509-0.535 1.355-0.556 1.89-0.047s0.556 1.355 0.047 1.89l-28.006 29.328c-0.497 0.523-1.324 0.557-1.862 0.070l-13.093-11.873z"></path>
</symbol>
<symbol id="icon-left" viewBox="0 0 43 32">
<path d="M39.712 16.728c1.105 0 2-0.895 2-2s-0.895-2-2-2v4zM0.586 13.314c-0.781 0.781-0.781 2.047 0 2.828l12.728 12.728c0.781 0.781 2.047 0.781 2.828 0s0.781-2.047 0-2.828l-11.314-11.314 11.314-11.314c0.781-0.781 0.781-2.047 0-2.828s-2.047-0.781-2.828 0l-12.728 12.728zM39.712 14.728v-2h-37.712v4h37.712v-2z"></path>
</symbol>
</symbol>
</svg>
