<svg aria-hidden="true" style="position: absolute; width: 0; height: 0; overflow: hidden;" version="1.1" xmlns="http://www.w3.org/2000/svg" xmlns:xlink="http://www.w3.org/1999/xlink">


<symbol id="icon-close" viewBox="0 0 32 32">
<path d="M1.074 1.074c0.669-0.669 1.755-0.669 2.424 0l12.502 12.502 12.502-12.502c0.669-0.669 1.755-0.669 2.424 0s0.669 1.755 0 2.424l-12.502 12.502 12.502 12.502c0.669 0.669 0.669 1.755 0 2.424s-1.755 0.669-2.424 0l-12.502-12.502-12.502 12.502c-0.669 0.669-1.755 0.669-2.424 0s-0.669-1.755 0-2.424l12.502-12.502-12.502-12.502c-0.669-0.669-0.669-1.755 0-2.424z"></path>
</symbol>
<symbol id="icon-open" viewBox="0 0 48 32">
<path fill="#fff" style="fill: var(--color1, #fff)" d="M2.667 32c-0.756 0-1.388-0.256-1.899-0.768s-0.766-1.145-0.768-1.899c-0.002-0.754 0.254-1.387 0.768-1.899s1.147-0.768 1.899-0.768h42.667c0.756 0 1.389 0.256 1.901 0.768s0.767 1.145 0.765 1.899c-0.002 0.754-0.258 1.388-0.768 1.901s-1.143 0.769-1.899 0.765h-42.667zM2.667 18.667c-0.756 0-1.388-0.256-1.899-0.768s-0.766-1.145-0.768-1.899c-0.002-0.754 0.254-1.387 0.768-1.899s1.147-0.768 1.899-0.768h42.667c0.756 0 1.389 0.256 1.901 0.768s0.767 1.145 0.765 1.899c-0.002 0.754-0.258 1.388-0.768 1.901s-1.143 0.769-1.899 0.765h-42.667zM2.667 5.333c-0.756 0-1.388-0.256-1.899-0.768s-0.766-1.145-0.768-1.899c-0.002-0.754 0.254-1.387 0.768-1.899s1.147-0.768 1.899-0.768h42.667c0.756 0 1.389 0.256 1.901 0.768s0.767 1.145 0.765 1.899c-0.002 0.754-0.258 1.388-0.768 1.901s-1.143 0.769-1.899 0.765h-42.667z"></path>
</symbol>
<symbol id="icon-instagram" viewBox="0 0 32 32">
<path fill="none" stroke="#fff" style="stroke: var(--color1, #fff)" stroke-linejoin="miter" stroke-linecap="butt" stroke-miterlimit="4" stroke-width="2.6667" d="M4 14.667c0-5.028 0-7.543 1.563-9.104s4.076-1.563 9.104-1.563h2.667c5.028 0 7.543 0 9.104 1.563s1.563 4.076 1.563 9.104v2.667c0 5.028 0 7.543-1.563 9.104s-4.076 1.563-9.104 1.563h-2.667c-5.028 0-7.543 0-9.104-1.563s-1.563-4.076-1.563-9.104v-2.667z"></path>
<path fill="#fff" style="fill: var(--color1, #fff)" d="M22 12c1.105 0 2-0.895 2-2s-0.895-2-2-2c-1.105 0-2 0.895-2 2s0.895 2 2 2z"></path>
<path fill="none" stroke="#fff" style="stroke: var(--color1, #fff)" stroke-linejoin="miter" stroke-linecap="butt" stroke-miterlimit="4" stroke-width="2.6667" d="M16 20c2.209 0 4-1.791 4-4s-1.791-4-4-4c-2.209 0-4 1.791-4 4s1.791 4 4 4z"></path>
</symbol>
<symbol id="icon-whatsapp" viewBox="0 0 32 32">
<path fill="#fff" style="fill: var(--color1, #fff)" d="M25.4 6.547c-1.223-1.235-2.679-2.213-4.283-2.88s-3.326-1.006-5.063-1c-7.28 0-13.213 5.933-13.213 13.213 0 2.333 0.613 4.6 1.76 6.6l-1.867 6.853 7-1.84c1.933 1.053 4.107 1.613 6.32 1.613 7.28 0 13.213-5.933 13.213-13.213 0-3.533-1.373-6.853-3.867-9.347zM16.053 26.867c-1.973 0-3.907-0.533-5.6-1.533l-0.4-0.24-4.16 1.093 1.107-4.053-0.267-0.413c-1.097-1.751-1.679-3.774-1.68-5.84 0-6.053 4.933-10.987 10.987-10.987 2.933 0 5.693 1.147 7.76 3.227 1.023 1.018 1.835 2.23 2.386 3.564s0.833 2.765 0.827 4.209c0.027 6.053-4.907 10.973-10.96 10.973zM22.080 18.653c-0.333-0.16-1.96-0.96-2.253-1.080-0.307-0.107-0.52-0.16-0.747 0.16-0.227 0.333-0.853 1.080-1.040 1.293-0.187 0.227-0.387 0.253-0.72 0.080-0.333-0.16-1.4-0.52-2.653-1.64-0.987-0.88-1.64-1.96-1.84-2.293-0.187-0.333-0.027-0.507 0.147-0.68 0.147-0.147 0.333-0.387 0.493-0.573s0.227-0.333 0.333-0.547c0.107-0.227 0.053-0.413-0.027-0.573s-0.747-1.787-1.013-2.453c-0.267-0.64-0.547-0.56-0.747-0.573h-0.64c-0.227 0-0.573 0.080-0.88 0.413-0.293 0.333-1.147 1.133-1.147 2.76s1.187 3.2 1.347 3.413c0.16 0.227 2.333 3.56 5.64 4.987 0.787 0.347 1.4 0.547 1.88 0.693 0.787 0.253 1.507 0.213 2.080 0.133 0.64-0.093 1.96-0.8 2.227-1.573 0.28-0.773 0.28-1.427 0.187-1.573s-0.293-0.213-0.627-0.373z"></path>
</symbol>
<symbol id="icon-youtube" viewBox="0 0 32 32">
<path fill="#fff" style="fill: var(--color1, #fff)" d="M16 5.333c1.14 0 2.309 0.029 3.443 0.077l1.339 0.064 1.281 0.076 1.2 0.081 1.096 0.085c1.19 0.091 2.309 0.598 3.161 1.433s1.382 1.944 1.497 3.131l0.053 0.567 0.1 1.213c0.093 1.257 0.163 2.628 0.163 3.939s-0.069 2.681-0.163 3.939l-0.1 1.213-0.053 0.567c-0.115 1.188-0.645 2.297-1.498 3.132s-1.972 1.342-3.162 1.432l-1.093 0.084-1.2 0.083-1.283 0.076-1.339 0.064c-1.147 0.050-2.295 0.075-3.443 0.077-1.148-0.002-2.296-0.028-3.443-0.077l-1.339-0.064-1.281-0.076-1.2-0.083-1.096-0.084c-1.19-0.091-2.309-0.598-3.161-1.433s-1.382-1.944-1.497-3.131l-0.053-0.567-0.1-1.213c-0.102-1.311-0.156-2.624-0.163-3.939 0-1.311 0.069-2.681 0.163-3.939l0.1-1.213 0.053-0.567c0.115-1.187 0.645-2.296 1.497-3.131s1.971-1.342 3.16-1.433l1.095-0.085 1.2-0.081 1.283-0.076 1.339-0.064c1.147-0.050 2.296-0.075 3.444-0.077zM16 8c-1.1 0-2.232 0.029-3.333 0.075l-1.304 0.063-1.252 0.073-1.176 0.080-1.077 0.084c-0.566 0.040-1.1 0.279-1.507 0.675s-0.66 0.924-0.714 1.489c-0.156 1.612-0.303 3.619-0.303 5.461s0.147 3.849 0.303 5.461c0.113 1.163 1.036 2.067 2.221 2.164l1.077 0.083 1.176 0.080 1.252 0.075 1.304 0.063c1.101 0.045 2.233 0.075 3.333 0.075s2.232-0.029 3.333-0.075l1.304-0.063 1.252-0.073 1.176-0.080 1.077-0.084c0.566-0.040 1.1-0.279 1.507-0.675s0.66-0.924 0.714-1.489c0.156-1.612 0.303-3.619 0.303-5.461s-0.147-3.849-0.303-5.461c-0.054-0.565-0.307-1.093-0.714-1.489s-0.941-0.635-1.507-0.675l-1.077-0.083-1.176-0.080-1.252-0.075-1.304-0.063c-1.111-0.048-2.222-0.073-3.333-0.075zM13.333 12.767c-0-0.13 0.032-0.259 0.093-0.374s0.149-0.214 0.257-0.287c0.108-0.073 0.231-0.12 0.361-0.134s0.261 0.003 0.382 0.050l0.108 0.053 5.6 3.232c0.111 0.064 0.206 0.155 0.275 0.263s0.111 0.232 0.122 0.361c0.011 0.128-0.009 0.257-0.058 0.376s-0.127 0.224-0.226 0.307l-0.113 0.080-5.6 3.233c-0.113 0.065-0.24 0.102-0.37 0.107s-0.26-0.022-0.377-0.078c-0.118-0.057-0.219-0.141-0.297-0.246s-0.128-0.227-0.147-0.356l-0.008-0.12v-6.467z"></path>
</symbol>
<symbol id="icon-linkedin" viewBox="0 0 32 32">
<path fill="#fff" style="fill: var(--color1, #fff)" d="M9.253 6.667c-0 0.707-0.282 1.385-0.782 1.885s-1.179 0.78-1.886 0.78c-0.707-0-1.385-0.282-1.885-0.782s-0.78-1.179-0.78-1.886c0-0.707 0.282-1.385 0.782-1.885s1.179-0.78 1.886-0.78c0.707 0 1.385 0.282 1.885 0.782s0.78 1.179 0.78 1.886zM9.333 11.307h-5.333v16.693h5.333v-16.693zM17.76 11.307h-5.307v16.693h5.253v-8.76c0-4.88 6.36-5.333 6.36 0v8.76h5.267v-10.573c0-8.227-9.413-7.92-11.627-3.88l0.053-2.24z"></path>
</symbol>
<symbol id="icon-telegram" viewBox="0 0 32 32">
<path fill="#fff" style="fill: var(--color1, #fff)" d="M29.12 8.075c0.058-0.353 0.021-0.715-0.109-1.048s-0.346-0.626-0.627-0.848c-0.281-0.221-0.616-0.363-0.971-0.411s-0.715 0-1.045 0.139l-22.8 9.6c-1.589 0.669-1.671 2.968 0 3.661 1.655 0.689 3.333 1.32 5.032 1.891 1.557 0.515 3.256 0.991 4.617 1.125 0.372 0.445 0.84 0.875 1.317 1.267 0.729 0.6 1.607 1.217 2.513 1.809 1.816 1.187 3.831 2.321 5.188 3.060 1.623 0.88 3.565-0.133 3.856-1.903l3.027-18.343zM6.125 17.324l20.165-8.491-2.824 17.12c-1.332-0.724-3.251-1.808-4.96-2.925-0.788-0.506-1.548-1.053-2.279-1.639-0.195-0.159-0.385-0.326-0.568-0.499l5.281-5.28c0.25-0.25 0.391-0.589 0.391-0.943s-0.14-0.693-0.39-0.943-0.589-0.391-0.943-0.391c-0.354-0-0.693 0.14-0.943 0.39l-5.783 5.783c-0.979-0.125-2.341-0.488-3.837-0.981-1.114-0.371-2.217-0.772-3.309-1.203l-0.001 0.001z"></path>
</symbol>
<symbol id="icon-eye" viewBox="0 0 32 32">
<path fill="#fff" style="fill: var(--color1, #fff)" d="M24.833 0h-17c-0.663 0-1.299 0.263-1.768 0.732s-0.732 1.105-0.732 1.768v27c0 0.663 0.263 1.299 0.732 1.768s1.105 0.732 1.768 0.732h17c0.663 0 1.299-0.263 1.768-0.732s0.732-1.105 0.732-1.768v-27c0-0.663-0.263-1.299-0.732-1.768s-1.105-0.732-1.768-0.732zM24.833 29.5h-17v-27h17v27z"></path>
<path fill="#fff" style="fill: var(--color1, #fff)" d="M16 27c0.884 0 1.6-0.672 1.6-1.5s-0.716-1.5-1.6-1.5c-0.884 0-1.6 0.672-1.6 1.5s0.716 1.5 1.6 1.5z"></path>
</symbol>
<symbol id="icon-eye-off" viewBox="0 0 32 32">
<path stroke-linejoin="round" stroke-linecap="round" stroke-miterlimit="4" stroke-width="0.7547" d="M2.667 16c0 7.364 5.969 13.333 13.333 13.333s13.333-5.969 13.333-13.333c0-7.364-5.969-13.333-13.333-13.333s-13.333 5.969-13.333 13.333zM2.667 16v13.333"></path>
</symbol>
</symbol>
</svg>
